<svg id="Capa_1" data-name="Capa 1" xmlns="http://www.w3.org/2000/svg" viewBox="0 0 351.98 90.93"><defs><style>.cls-1,.cls-2,.cls-3,.cls-4{fill:#004f8c;}.cls-2{opacity:0.8;}.cls-3{opacity:0.4;}.cls-4{opacity:0.6;}</style></defs><title>logoprincipal2</title><path class="cls-1" d="M183.84,66.33h12.82V69.9H179.83V41.18h4Z" transform="translate(-24.35 -33.41)"/><path class="cls-1" d="M209.27,57.44a3.81,3.81,0,0,0-1.3-3.18,5.34,5.34,0,0,0-3.44-1,7.79,7.79,0,0,0-5.48,2.23L197,53a10.3,10.3,0,0,1,3.47-2.1,12.31,12.31,0,0,1,4.4-.78,10,10,0,0,1,3.59.59,6.9,6.9,0,0,1,2.5,1.6,6.52,6.52,0,0,1,1.45,2.4,8.67,8.67,0,0,1,.49,3v8.39c0,.65,0,1.34.07,2a9.43,9.43,0,0,0,.22,1.77h-3.45a11.83,11.83,0,0,1-.33-2.76h-.12a7.39,7.39,0,0,1-2.65,2.39,8,8,0,0,1-3.8.85,10.06,10.06,0,0,1-2.37-.3,6.92,6.92,0,0,1-2.25-1,5.3,5.3,0,0,1-2.35-4.62A4.94,4.94,0,0,1,197.06,61a7.4,7.4,0,0,1,3.09-1.94,17.4,17.4,0,0,1,4.3-.88c1.59-.13,3.2-.2,4.82-.2Zm-.93,3.29q-1.43,0-2.94.12a13.19,13.19,0,0,0-2.76.49,5.29,5.29,0,0,0-2,1.09,2.51,2.51,0,0,0-.81,1.95A2.62,2.62,0,0,0,201,66.73a3.44,3.44,0,0,0,1.25.51,7.54,7.54,0,0,0,1.43.14,5.23,5.23,0,0,0,4.11-1.6,5.81,5.81,0,0,0,1.44-4v-1Z" transform="translate(-24.35 -33.41)"/><path class="cls-1" d="M220,66.85V69.9h-3.69V39.23h3.81V53.55h.12A8,8,0,0,1,223,51.14a8.23,8.23,0,0,1,4.13-1,9.5,9.5,0,0,1,3.9.78,9,9,0,0,1,3,2.14,9.72,9.72,0,0,1,2,3.23,11.2,11.2,0,0,1,.69,4,11.41,11.41,0,0,1-.69,4,10,10,0,0,1-1.94,3.24,9.09,9.09,0,0,1-3,2.17,9.76,9.76,0,0,1-4,.79,8.82,8.82,0,0,1-3.93-.91,7.31,7.31,0,0,1-3-2.66Zm12.77-6.59a8.39,8.39,0,0,0-.4-2.59,6.68,6.68,0,0,0-1.22-2.22,5.86,5.86,0,0,0-2-1.54,6.57,6.57,0,0,0-2.78-.56,6.1,6.1,0,0,0-4.71,2.1,7.08,7.08,0,0,0-1.31,2.22,7.33,7.33,0,0,0-.47,2.63,7.25,7.25,0,0,0,.47,2.63,6.82,6.82,0,0,0,1.31,2.21,6.46,6.46,0,0,0,2,1.51,6.1,6.1,0,0,0,2.66.57,6.28,6.28,0,0,0,2.78-.59,6.15,6.15,0,0,0,2-1.55,6.63,6.63,0,0,0,1.22-2.23A8.35,8.35,0,0,0,232.79,60.26Z" transform="translate(-24.35 -33.41)"/><path class="cls-1" d="M258.47,60.24a10.34,10.34,0,0,1-.79,4.1,9.93,9.93,0,0,1-2.19,3.23,10,10,0,0,1-3.31,2.1,11.55,11.55,0,0,1-8.19,0,9.76,9.76,0,0,1-3.29-2.1,10,10,0,0,1-2.16-3.23,10.34,10.34,0,0,1-.8-4.1,10.19,10.19,0,0,1,.8-4.07A9.83,9.83,0,0,1,240.7,53,10.05,10.05,0,0,1,244,50.89a11.55,11.55,0,0,1,8.19,0A10.36,10.36,0,0,1,255.49,53a9.76,9.76,0,0,1,2.19,3.19A10.19,10.19,0,0,1,258.47,60.24Zm-4,0a8.28,8.28,0,0,0-.42-2.63,6.89,6.89,0,0,0-1.24-2.2,6.15,6.15,0,0,0-2-1.52,7,7,0,0,0-5.49,0,6,6,0,0,0-2,1.52,6.73,6.73,0,0,0-1.25,2.2,8.28,8.28,0,0,0-.42,2.63,8.19,8.19,0,0,0,.42,2.63,6.87,6.87,0,0,0,1.25,2.23,5.9,5.9,0,0,0,2,1.53,6.89,6.89,0,0,0,5.49,0,6,6,0,0,0,2-1.53,7,7,0,0,0,1.24-2.23A8.19,8.19,0,0,0,254.49,60.26Z" transform="translate(-24.35 -33.41)"/><path class="cls-1" d="M260.66,52.82c0-.81-.07-1.53-.12-2.15h3.61c.05.49.09,1,.12,1.69s0,1.15,0,1.56h.12a6.63,6.63,0,0,1,2.37-2.74,6.21,6.21,0,0,1,3.51-1,5.74,5.74,0,0,1,1.5.17l-.16,3.52a7.41,7.41,0,0,0-1.74-.2,5.31,5.31,0,0,0-2.4.51,4.87,4.87,0,0,0-1.68,1.36,5.58,5.58,0,0,0-1,2,8.22,8.22,0,0,0-.33,2.34V69.9H260.7V54.81C260.7,54.29,260.68,53.63,260.66,52.82Z" transform="translate(-24.35 -33.41)"/><path class="cls-1" d="M283.78,57.44a3.84,3.84,0,0,0-1.3-3.18,5.37,5.37,0,0,0-3.45-1,7.79,7.79,0,0,0-5.47,2.23l-2-2.44a10.15,10.15,0,0,1,3.46-2.1,12.32,12.32,0,0,1,4.41-.78,10,10,0,0,1,3.59.59,6.86,6.86,0,0,1,2.49,1.6,6.54,6.54,0,0,1,1.46,2.4,8.67,8.67,0,0,1,.49,3v8.39c0,.65,0,1.34.06,2a11.46,11.46,0,0,0,.22,1.77h-3.45a12.37,12.37,0,0,1-.32-2.76h-.12a7.42,7.42,0,0,1-2.66,2.39,7.94,7.94,0,0,1-3.79.85,10.14,10.14,0,0,1-2.38-.3,6.92,6.92,0,0,1-2.25-1,5.56,5.56,0,0,1-1.68-1.82,5.5,5.5,0,0,1-.67-2.8A4.9,4.9,0,0,1,271.57,61a7.37,7.37,0,0,1,3.08-1.94,17.4,17.4,0,0,1,4.3-.88c1.59-.13,3.21-.2,4.83-.2Zm-.94,3.29c-.94,0-1.92,0-2.93.12a13.17,13.17,0,0,0-2.77.49,5.24,5.24,0,0,0-2,1.09,2.51,2.51,0,0,0-.81,1.95,2.69,2.69,0,0,0,.34,1.42,2.79,2.79,0,0,0,.91.93,3.49,3.49,0,0,0,1.26.51,7.35,7.35,0,0,0,1.42.14,5.25,5.25,0,0,0,4.12-1.6,5.81,5.81,0,0,0,1.44-4v-1Z" transform="translate(-24.35 -33.41)"/><path class="cls-1" d="M299.76,53.8h-5.11v10a3.75,3.75,0,0,0,.65,2.49,2.59,2.59,0,0,0,2.07.75,5.8,5.8,0,0,0,1.13-.12,4.35,4.35,0,0,0,1.09-.33l.13,3.12a9.11,9.11,0,0,1-1.52.39,10.82,10.82,0,0,1-1.73.14,5.47,5.47,0,0,1-4.15-1.5,6.27,6.27,0,0,1-1.44-4.5V53.8h-3.69V50.67h3.69V45.16h3.77v5.51h5.11Z" transform="translate(-24.35 -33.41)"/><path class="cls-1" d="M320.12,60.24a10.51,10.51,0,0,1-.79,4.1,9.8,9.8,0,0,1-2.2,3.23,9.9,9.9,0,0,1-3.3,2.1,11.55,11.55,0,0,1-8.19,0,9.62,9.62,0,0,1-3.28-2.1,9.72,9.72,0,0,1-2.17-3.23,10.34,10.34,0,0,1-.8-4.1,10.19,10.19,0,0,1,.8-4.07A9.56,9.56,0,0,1,302.36,53a9.9,9.9,0,0,1,3.28-2.09,11.55,11.55,0,0,1,8.19,0,10.2,10.2,0,0,1,3.3,2.09,9.63,9.63,0,0,1,2.2,3.19A10.36,10.36,0,0,1,320.12,60.24Zm-4,0a8,8,0,0,0-.43-2.63,6.68,6.68,0,0,0-1.23-2.2,6.15,6.15,0,0,0-2-1.52,7,7,0,0,0-5.49,0,6,6,0,0,0-2,1.52,6.89,6.89,0,0,0-1.24,2.2,8.28,8.28,0,0,0-.42,2.63,8.19,8.19,0,0,0,.42,2.63A7,7,0,0,0,305,65.12a5.94,5.94,0,0,0,2,1.53,6.89,6.89,0,0,0,5.49,0,6,6,0,0,0,2-1.53,6.83,6.83,0,0,0,1.23-2.23A7.93,7.93,0,0,0,316.14,60.26Z" transform="translate(-24.35 -33.41)"/><path class="cls-1" d="M322.3,52.82c0-.81-.06-1.53-.11-2.15h3.61c.05.49.09,1,.12,1.69s0,1.15,0,1.56h.12a6.63,6.63,0,0,1,2.37-2.74,6.21,6.21,0,0,1,3.51-1,5.74,5.74,0,0,1,1.5.17l-.16,3.52a7.44,7.44,0,0,0-1.75-.2,5.29,5.29,0,0,0-2.39.51,4.87,4.87,0,0,0-1.68,1.36,5.77,5.77,0,0,0-1,2,8.59,8.59,0,0,0-.32,2.34V69.9h-3.81V54.81C322.35,54.29,322.33,53.63,322.3,52.82Z" transform="translate(-24.35 -33.41)"/><path class="cls-1" d="M338.45,43.74a2.26,2.26,0,0,1-.75,1.74,2.52,2.52,0,0,1-1.79.69,2.47,2.47,0,0,1-1.77-.71,2.33,2.33,0,0,1-.72-1.72,2.39,2.39,0,0,1,.72-1.77,2.47,2.47,0,0,1,1.77-.71,2.5,2.5,0,0,1,1.79.71A2.34,2.34,0,0,1,338.45,43.74Zm-.61,26.16H334V50.67h3.81Z" transform="translate(-24.35 -33.41)"/><path class="cls-1" d="M360.91,60.24a10.33,10.33,0,0,1-.78,4.1,9.93,9.93,0,0,1-2.19,3.23,10,10,0,0,1-3.31,2.1,11.55,11.55,0,0,1-8.19,0,9.76,9.76,0,0,1-3.29-2.1A10,10,0,0,1,341,64.34a10.51,10.51,0,0,1-.79-4.1,10.36,10.36,0,0,1,.79-4.07A9.86,9.86,0,0,1,343.15,53a10.05,10.05,0,0,1,3.29-2.09,11.55,11.55,0,0,1,8.19,0A10.36,10.36,0,0,1,357.94,53a9.76,9.76,0,0,1,2.19,3.19A10.19,10.19,0,0,1,360.91,60.24Zm-4,0a8.28,8.28,0,0,0-.43-2.63,6.89,6.89,0,0,0-1.24-2.2,6.15,6.15,0,0,0-2-1.52,7,7,0,0,0-5.49,0,6,6,0,0,0-2,1.52,6.89,6.89,0,0,0-1.24,2.2,8.28,8.28,0,0,0-.42,2.63,8.19,8.19,0,0,0,.42,2.63,7,7,0,0,0,1.24,2.23,5.94,5.94,0,0,0,2,1.53,6.89,6.89,0,0,0,5.49,0,6,6,0,0,0,2-1.53,7,7,0,0,0,1.24-2.23A8.19,8.19,0,0,0,357,60.26Z" transform="translate(-24.35 -33.41)"/><path class="cls-1" d="M373.53,55.54a5.05,5.05,0,0,0-1.82-1.73,5.34,5.34,0,0,0-2.64-.67,5.83,5.83,0,0,0-1.3.15,3.83,3.83,0,0,0-1.16.44,2.56,2.56,0,0,0-.8.77,2,2,0,0,0-.31,1.16,1.93,1.93,0,0,0,1.09,1.8,13.51,13.51,0,0,0,3.29,1.08,20.89,20.89,0,0,1,2.56.77,8,8,0,0,1,2,1.12,4.73,4.73,0,0,1,1.36,1.6,4.6,4.6,0,0,1,.49,2.19,5.92,5.92,0,0,1-.65,2.88A5.68,5.68,0,0,1,374,69a7.2,7.2,0,0,1-2.46,1.08,12.75,12.75,0,0,1-2.84.32,11.23,11.23,0,0,1-4.28-.85A8.5,8.5,0,0,1,360.91,67l2.72-2.32a6.28,6.28,0,0,0,2.13,1.91,6,6,0,0,0,3,.77,7.15,7.15,0,0,0,1.4-.14,3.86,3.86,0,0,0,1.21-.47,2.37,2.37,0,0,0,.87-.85,2.49,2.49,0,0,0,.33-1.34,2.13,2.13,0,0,0-1.28-2,16.81,16.81,0,0,0-3.75-1.21c-.65-.16-1.31-.36-2-.59a6.73,6.73,0,0,1-1.8-1,4.75,4.75,0,0,1-1.32-1.53,4.5,4.5,0,0,1-.51-2.24,5.31,5.31,0,0,1,.63-2.66,5.66,5.66,0,0,1,1.64-1.83,7.33,7.33,0,0,1,2.32-1,10.24,10.24,0,0,1,6.67.47,6.59,6.59,0,0,1,3,2.35Z" transform="translate(-24.35 -33.41)"/><path class="cls-1" d="M195.57,82.23a6.38,6.38,0,0,0-2.31-1.92,7.09,7.09,0,0,0-3.29-.75,7.39,7.39,0,0,0-2,.26,5.48,5.48,0,0,0-1.81.85,4.62,4.62,0,0,0-1.31,1.47,4,4,0,0,0-.51,2.08,3.83,3.83,0,0,0,.46,2,4.23,4.23,0,0,0,1.26,1.34,8,8,0,0,0,1.87.93c.71.26,1.48.52,2.29.79,1,.3,2,.64,3,1a10.41,10.41,0,0,1,2.72,1.5,7.34,7.34,0,0,1,2,2.33,7.21,7.21,0,0,1,.78,3.55,8.4,8.4,0,0,1-.84,3.87,8,8,0,0,1-2.21,2.72,9.34,9.34,0,0,1-3.18,1.6,13.26,13.26,0,0,1-3.71.53,13.47,13.47,0,0,1-5.26-1.06,10.3,10.3,0,0,1-4.19-3.12l3.12-2.64a7.75,7.75,0,0,0,2.72,2.44,7.55,7.55,0,0,0,3.69.93,7.94,7.94,0,0,0,2-.28,5.63,5.63,0,0,0,1.84-.9,4.73,4.73,0,0,0,1.36-1.52A4.36,4.36,0,0,0,194.6,98a4,4,0,0,0-.55-2.17,4.86,4.86,0,0,0-1.48-1.48,9.71,9.71,0,0,0-2.17-1c-.83-.29-1.7-.58-2.62-.87a22.64,22.64,0,0,1-2.71-1,9.52,9.52,0,0,1-2.4-1.5,7,7,0,0,1-1.7-2.25,7.61,7.61,0,0,1-.65-3.32,7.35,7.35,0,0,1,.87-3.69,7.92,7.92,0,0,1,2.28-2.56,9.28,9.28,0,0,1,3.16-1.48,13.85,13.85,0,0,1,3.55-.47,12.44,12.44,0,0,1,4.7.89,9.43,9.43,0,0,1,3.53,2.4Z" transform="translate(-24.35 -33.41)"/><path class="cls-1" d="M214.59,91.28a4.71,4.71,0,0,0-1.82-1.56,5.61,5.61,0,0,0-2.6-.63,5.85,5.85,0,0,0-4.62,2.09,6.73,6.73,0,0,0-1.24,2.21,8.48,8.48,0,0,0,0,5.27,6.73,6.73,0,0,0,1.24,2.21,5.9,5.9,0,0,0,2,1.52,6,6,0,0,0,2.67.57,6.1,6.1,0,0,0,2.66-.57,5.48,5.48,0,0,0,2-1.54l2.55,2.31a8.18,8.18,0,0,1-3,2.21,10.29,10.29,0,0,1-4.14.8,11.17,11.17,0,0,1-4.11-.74,9.79,9.79,0,0,1-3.27-2,9.45,9.45,0,0,1-2.17-3.19,10.54,10.54,0,0,1-.79-4.17,10.79,10.79,0,0,1,.77-4.14,9.39,9.39,0,0,1,2.15-3.21,9.58,9.58,0,0,1,3.26-2.06,11.16,11.16,0,0,1,4.08-.73,10.75,10.75,0,0,1,4,.81,7.42,7.42,0,0,1,3.18,2.35Z" transform="translate(-24.35 -33.41)"/><path class="cls-1" d="M222.09,89.33a6,6,0,0,1,2.36-2.43,7,7,0,0,1,3.73-1,7.61,7.61,0,0,1,3.2.62,6.53,6.53,0,0,1,2.23,1.69,6.83,6.83,0,0,1,1.32,2.47,10.69,10.69,0,0,1,.43,3v11.93h-3.82V95a12.32,12.32,0,0,0-.18-2.24,5.27,5.27,0,0,0-.67-1.87,3.58,3.58,0,0,0-1.32-1.3,4.18,4.18,0,0,0-2.17-.49,4.66,4.66,0,0,0-3.73,1.73A6.92,6.92,0,0,0,222,95.43v10.21H218.2V75H222V89.33Z" transform="translate(-24.35 -33.41)"/><path class="cls-1" d="M258.23,96a10.34,10.34,0,0,1-.79,4.1,9.64,9.64,0,0,1-5.49,5.33,11.44,11.44,0,0,1-8.2,0,9.72,9.72,0,0,1-3.28-2.1,10,10,0,0,1-2.17-3.23,10.34,10.34,0,0,1-.79-4.1,10.19,10.19,0,0,1,.79-4.07,9.71,9.71,0,0,1,2.17-3.18,9.87,9.87,0,0,1,3.28-2.1,11.73,11.73,0,0,1,8.2,0,10.06,10.06,0,0,1,3.3,2.1,9.61,9.61,0,0,1,2.19,3.18A10.19,10.19,0,0,1,258.23,96Zm-4,0a8.19,8.19,0,0,0-.43-2.63,6.65,6.65,0,0,0-1.24-2.21,5.89,5.89,0,0,0-2-1.51,6.89,6.89,0,0,0-5.49,0,5.85,5.85,0,0,0-2,1.51,6.65,6.65,0,0,0-1.24,2.21,8.23,8.23,0,0,0,0,5.25,6.85,6.85,0,0,0,1.24,2.23,5.66,5.66,0,0,0,2,1.53,6.89,6.89,0,0,0,5.49,0,5.7,5.7,0,0,0,2-1.53,6.85,6.85,0,0,0,1.24-2.23A8.18,8.18,0,0,0,254.26,96Z" transform="translate(-24.35 -33.41)"/><path class="cls-1" d="M278.43,95.86v.65a4.63,4.63,0,0,1,0,.65H263.1a5.71,5.71,0,0,0,.55,2.28,5.91,5.91,0,0,0,1.36,1.85,6.38,6.38,0,0,0,2,1.23,6.52,6.52,0,0,0,2.37.44,6.42,6.42,0,0,0,3.37-.85,6.86,6.86,0,0,0,2.23-2.07l2.68,2.15a9.59,9.59,0,0,1-3.63,3,11.55,11.55,0,0,1-8.7.23A9.16,9.16,0,0,1,260,100.2a10.6,10.6,0,0,1-.77-4.14A11,11,0,0,1,260,92a9.39,9.39,0,0,1,2.09-3.22,9.59,9.59,0,0,1,3.17-2.1,10.46,10.46,0,0,1,3.94-.74,10.26,10.26,0,0,1,3.84.68,8.06,8.06,0,0,1,2.93,2,9,9,0,0,1,1.85,3.15A12.25,12.25,0,0,1,278.43,95.86Zm-3.89-1.54a7.32,7.32,0,0,0-.39-2.13,4.69,4.69,0,0,0-2.68-2.88,6,6,0,0,0-2.33-.42,6.25,6.25,0,0,0-2.29.42,5.88,5.88,0,0,0-3.16,2.88,5.38,5.38,0,0,0-.59,2.13Z" transform="translate(-24.35 -33.41)"/><path class="cls-1" d="M284.11,86.41c.05.49.09,1,.12,1.64s0,1.12,0,1.53h.12a5.33,5.33,0,0,1,1-1.44A6.68,6.68,0,0,1,286.83,87a7,7,0,0,1,1.78-.79,7.21,7.21,0,0,1,2-.28,7.61,7.61,0,0,1,3.2.62,6.62,6.62,0,0,1,2.23,1.69,6.83,6.83,0,0,1,1.32,2.47,10.69,10.69,0,0,1,.43,3v11.93H294V95a13.25,13.25,0,0,0-.18-2.23,5.34,5.34,0,0,0-.67-1.87,3.54,3.54,0,0,0-1.34-1.29,4.28,4.28,0,0,0-2.19-.49,4.61,4.61,0,0,0-3.71,1.72,7,7,0,0,0-1.44,4.61v10.22h-3.81V90.55c0-.51,0-1.18,0-2s-.07-1.52-.12-2.15Z" transform="translate(-24.35 -33.41)"/><path class="cls-2" d="M24.35,78.88S34.59,40.61,96.08,33.41C96.08,33.41,73.72,79.33,24.35,78.88Z" transform="translate(-24.35 -33.41)"/><path class="cls-1" d="M24.35,78.88s10.24,38.26,71.73,45.46C96.08,124.34,73.72,78.43,24.35,78.88Z" transform="translate(-24.35 -33.41)"/><path class="cls-3" d="M167.81,78.88s-10.25,38.26-71.73,45.46C96.08,124.34,118.43,78.43,167.81,78.88Z" transform="translate(-24.35 -33.41)"/><path class="cls-4" d="M167.81,78.88S157.56,40.61,96.08,33.41C96.08,33.41,118.43,79.33,167.81,78.88Z" transform="translate(-24.35 -33.41)"/></svg>