<?xml version="1.0" encoding="utf-8"?>
<!-- Svg Vector Icons : http://www.onlinewebfonts.com/icon -->
<!DOCTYPE svg PUBLIC "-//W3C//DTD SVG 1.1//EN" "http://www.w3.org/Graphics/SVG/1.1/DTD/svg11.dtd">
<svg version="1.1" xmlns="http://www.w3.org/2000/svg" xmlns:xlink="http://www.w3.org/1999/xlink" x="0px" y="0px" viewBox="0 0 1000 1000" enable-background="new 0 0 1000 1000" xml:space="preserve">
<metadata> Svg Vector Icons : http://www.onlinewebfonts.com/icon </metadata>
<g><g><g id="Layer_2_29_"><path d="M983.2,559h-86.3c-4.8,0-10.8,4.8-13.4,8.7l-25,38.2c-2.6,4-4.9,11.4-5.8,16.1c-4.2,21.8-25.9,77.9-137.1,77.9c-138.4,0-126.1-205.4-121.8-250.2c0.5-4.7-1.4-11.6-4.2-15.4l-93.2-127.5c-2.9-3.8-9.1-10.1-13.8-10.1h-51.8c-4.8,0-11,0.2-14-3.5L358.6,221c-3-3.7-9.2-6.2-14-6.2h-69c-4.8,0-13.3,6-13.3,10.8v17.3c0,4.8,0.8,4.7-3.9,4.7h-51.8c-4.8,0-11.6-0.5-15.4-3.4l-72.8-57.5c-3.7-3-10.6-4.6-15.3-4.6H16.7c-4.8,0-7.6,4-6.4,8.5L57.5,367c1.2,4.6-1.6,11.7-6.4,11.7H16.7c-4.8,0-5.9-0.5-2.5,2.9L71,436.8c3.4,3.4,8.1,7.8,10.5,11.9l94.7,157.8c2.5,4.1,7.9,5.7,12.2,3.5l19.1-9.5c4.3-2.1,6.2-7.4,4.4-11.8L97.6,308c-1.8-4.4,0.6-11.2,5.3-11.2h17.3c4.8,0,10.8,6.5,13.4,10.4l163,246.2c2.6,4,5.9,11.7,7.2,16.3l29.8,104.6c1.3,4.6,5.5,10.7,9.4,13.4l158.5,111c3.9,2.7,10.9,4.2,15.5,3.2l153.5-32.1c4.7-1,11.8,0.2,15.9,2.7l73.7,44c4.1,2.4,10.1,1.7,13.5-1.7l22.3-21.3c3.4-3.3,10-5.1,14.7-5.1h51.8c4.8,0,6.9-4.5,4.8-8.7l-9.5-19.6c-2.1-4.3-1.1-10.7,2.2-14.1l108.6-108.7c3.4-3.4,7-9.9,8.2-14.5l13.1-53.9C990.9,564.4,988,559,983.2,559z"/></g></g><g></g><g></g><g></g><g></g><g></g><g></g><g></g><g></g><g></g><g></g><g></g><g></g><g></g><g></g><g></g></g>
</svg>